<?xml version="1.0" ?><svg id="Layer_1" style="enable-background:new 0 0 91 91;" version="1.1" viewBox="0 0 91 91" xml:space="preserve" xmlns="http://www.w3.org/2000/svg" xmlns:xlink="http://www.w3.org/1999/xlink"><g><path d="M68.1,41.3c0-11.7-9.5-21.2-21.2-21.2c-11.7,0-21.2,9.5-21.2,21.2c0,9.6,6.7,18.2,15.9,20.6l1.8,4.8   c-5,0.3-13.4,1.5-13.4,5.7c0,5.7,15.2,5.9,17,5.9s17-0.2,17-5.9c0-4.3-8.5-5.4-13.5-5.7l1.7-4.7C61.4,59.6,68.1,51,68.1,41.3z    M39.1,51.5l1.5-8.6l-6.3-6.1l8.7-1.3l3.9-7.9l3.9,7.9l8.7,1.3l-6.3,6.1l1.5,8.6l-7.8-4.1L39.1,51.5z M60.3,72.4   c-1,1-5.9,2.5-13.5,2.5c-7.5,0-12.4-1.5-13.5-2.5c0.9-0.9,5-2.2,11.2-2.4l1.1,2.9c0.2,0.5,0.6,0.8,1.2,0.8c0,0,0,0,0,0   c0.5,0,1-0.3,1.2-0.8l1-2.9C55.4,70.2,59.4,71.5,60.3,72.4z"/></g></svg>