<svg data-name="Layer 1" viewBox="0 0 80 80" xmlns="http://www.w3.org/2000/svg"><path d="M40 40v11a4 4 0 0 1-4 4h-8.5a3.5 3.5 0 0 0-3.5 3.5h0a3.5 3.5 0 0 0 3.5 3.5H46M56 59h-3.171M56 65h-3.171" fill="none" stroke="#000000" stroke-linecap="round" stroke-linejoin="round" stroke-width="4px" class="stroke-000000"></path><rect height="10" rx="3" width="7" x="46" y="57" fill="#779da6" class="fill-ffda00"></rect><path d="M53 64v-4a3 3 0 0 1-3 3h-1a3 3 0 0 1-3-3v4a3 3 0 0 0 3 3h1a3 3 0 0 0 3-3Z" fill="#eabd00" class="fill-eabd00"></path><rect height="10" rx="3" width="7" x="46" y="57" fill="none" stroke="#000000" stroke-linecap="round" stroke-linejoin="round" stroke-width="4px" class="stroke-000000"></rect><path d="M10.38 39h59.241A3.974 3.974 0 0 0 71 36v-4a8 8 0 0 0-8-8h-4.963a4 4 0 0 1-3.235-1.647l-3.807-5.235A10 10 0 0 0 42.908 13h-19.57a4 4 0 0 0-3.935 3.284l-.806 4.432A4 4 0 0 1 14.662 24H13a4 4 0 0 0-4 4v8a3.974 3.974 0 0 0 1.38 3Z" fill="#779da6" class="fill-ffda00"></path><path d="M67 35H13a4 4 0 0 1-4-4v5a4 4 0 0 0 4 4h54a4 4 0 0 0 4-4v-4c0-.225-.015-.446-.034-.666A3.987 3.987 0 0 1 67 35Z" fill="#eabd00" class="fill-eabd00"></path><path d="M54.339 24 49.5 16.548l-6.33-2.903L32 13l8.5 8.5 1.328 1.328A4 4 0 0 0 44.657 24Z" fill="#76d1ff" class="fill-76d1ff"></path><path d="M58.037 24h-13.38a4 4 0 0 1-2.829-1.172L38 19" fill="none" stroke="#000000" stroke-linecap="round" stroke-linejoin="round" stroke-width="4px" class="stroke-000000"></path><path d="M36 40h31a4 4 0 0 0 4-4v-4a8 8 0 0 0-8-8h-4.963a4 4 0 0 1-3.235-1.647l-3.807-5.235A10 10 0 0 0 42.908 13h-19.57a4 4 0 0 0-3.935 3.284l-.806 4.432A4 4 0 0 1 14.662 24H13a4 4 0 0 0-4 4v8a4 4 0 0 0 4 4h5.349" fill="none" stroke="#000000" stroke-linecap="round" stroke-linejoin="round" stroke-width="4px" class="stroke-000000"></path><circle cx="24" cy="42" r="6" fill="#83807e" class="fill-3a3a3a"></circle><circle cx="55" cy="42" r="6" fill="#83807e" class="fill-3a3a3a"></circle><circle cx="24" cy="42" r="6" fill="none" stroke="#000000" stroke-linecap="round" stroke-linejoin="round" stroke-width="4px" class="stroke-000000"></circle><circle cx="55" cy="42" r="6" fill="none" stroke="#000000" stroke-linecap="round" stroke-linejoin="round" stroke-width="4px" class="stroke-000000"></circle></svg>